<svg width="75" height="75" viewBox="0 0 75 75" fill="none" xmlns="http://www.w3.org/2000/svg">
<rect width="75" height="75" rx="20" fill="#FFC4C4"/>
<path d="M34.0312 45.7773C33.8125 45.7773 33.6367 45.7148 33.5039 45.5898C33.3711 45.4648 33.3008 45.2969 33.293 45.0859L32.9414 32.5586C32.9336 32.3555 32.9961 32.1914 33.1289 32.0664C33.2695 31.9336 33.4492 31.8672 33.668 31.8672C33.8789 31.8672 34.0508 31.9297 34.1836 32.0547C34.3242 32.1797 34.3945 32.3438 34.3945 32.5469L34.7578 45.0859C34.7578 45.2891 34.6914 45.457 34.5586 45.5898C34.4258 45.7148 34.25 45.7773 34.0312 45.7773ZM37.5 45.7773C37.2812 45.7773 37.1016 45.7148 36.9609 45.5898C36.8203 45.457 36.75 45.2891 36.75 45.0859V32.5586C36.75 32.3555 36.8203 32.1914 36.9609 32.0664C37.1016 31.9336 37.2812 31.8672 37.5 31.8672C37.7266 31.8672 37.9102 31.9336 38.0508 32.0664C38.1914 32.1914 38.2617 32.3555 38.2617 32.5586V45.0859C38.2617 45.2891 38.1914 45.457 38.0508 45.5898C37.9102 45.7148 37.7266 45.7773 37.5 45.7773ZM40.9805 45.7773C40.7539 45.7773 40.5742 45.7148 40.4414 45.5898C40.3086 45.457 40.2461 45.2891 40.2539 45.0859L40.6055 32.5586C40.6133 32.3477 40.6836 32.1797 40.8164 32.0547C40.9492 31.9297 41.1211 31.8672 41.332 31.8672C41.5586 31.8672 41.7383 31.9336 41.8711 32.0664C42.0039 32.1914 42.0664 32.3555 42.0586 32.5586L41.707 45.0859C41.6992 45.2969 41.6289 45.4648 41.4961 45.5898C41.3633 45.7148 41.1914 45.7773 40.9805 45.7773ZM32.3555 28.8086V26.1836C32.3555 25.3398 32.6133 24.6758 33.1289 24.1914C33.6523 23.6992 34.3633 23.4531 35.2617 23.4531H39.7148C40.6133 23.4531 41.3203 23.6992 41.8359 24.1914C42.3594 24.6758 42.6211 25.3398 42.6211 26.1836V28.8086H40.7578V26.3008C40.7578 25.9727 40.6484 25.707 40.4297 25.5039C40.2188 25.3008 39.9375 25.1992 39.5859 25.1992H35.3906C35.0391 25.1992 34.7539 25.3008 34.5352 25.5039C34.3242 25.707 34.2188 25.9727 34.2188 26.3008V28.8086H32.3555ZM27.0352 29.7461C26.8008 29.7461 26.5938 29.6602 26.4141 29.4883C26.2422 29.3086 26.1562 29.0977 26.1562 28.8555C26.1562 28.6211 26.2422 28.418 26.4141 28.2461C26.5938 28.0664 26.8008 27.9766 27.0352 27.9766H47.9766C48.2109 27.9766 48.4141 28.0625 48.5859 28.2344C48.7578 28.4062 48.8438 28.6133 48.8438 28.8555C48.8438 29.0977 48.7578 29.3086 48.5859 29.4883C48.4219 29.6602 48.2188 29.7461 47.9766 29.7461H27.0352ZM32.1328 49.5508C31.2891 49.5508 30.6055 49.3008 30.082 48.8008C29.5664 48.3086 29.2891 47.6406 29.25 46.7969L28.418 29.5234H30.2578L31.0898 46.5859C31.1055 46.9297 31.2266 47.2148 31.4531 47.4414C31.6797 47.668 31.9609 47.7812 32.2969 47.7812H42.6914C43.0352 47.7812 43.3203 47.668 43.5469 47.4414C43.7734 47.2227 43.8945 46.9375 43.9102 46.5859L44.6953 29.5234H46.582L45.7617 46.7852C45.7227 47.6289 45.4414 48.3008 44.918 48.8008C44.3945 49.3008 43.7148 49.5508 42.8789 49.5508H32.1328Z" fill="#FF383C"/>
</svg>
